/* XPM */
static char *xpm___1[] = {
/* columns rows colors chars-per-pixel */
"18 18 2 1 ",
"  c #4B699A",
". c #C6D1E3",
/* pixels */
"                  ",
"        ..        ",
"  ..    ..    ..  ",
"  ...   ..   ...  ",
"   ...  ..  ...   ",
"    ... .. ...    ",
"     .. .. ..     ",
"                  ",
" ......    ...... ",
" ......    ...... ",
"                  ",
"     .. .. ..     ",
"    ... .. ...    ",
"   ...  ..  ...   ",
"  ...   ..   ...  ",
"  ..    ..    ..  ",
"        ..        ",
"                  "
};
